{
  "accessors": {
    "accessor_26": {
      "bufferView": "bufferView_1",
      "byteOffset": 0,
      "byteStride": 0,
      "componentType": 5123,
      "count": 11460,
      "max": [
        1131
      ],
      "min": [
        0
      ],
      "type": "SCALAR"
    },
    "accessor_28": {
      "bufferView": "bufferView_0",
      "byteOffset": 0,
      "byteStride": 0,
      "componentType": 5126,
      "count": 2132,
      "max": [
        1.318386197090149,
        7.0112433433532715,
        1.2058355808258057
      ],
      "min": [
        -1.0848157405853271,
        0.00963943637907505,
        -1.0910184383392334
      ],
      "type": "VEC3"
    },
    "accessor_30": {
      "bufferView": "bufferView_0",
      "byteOffset": 25584,
      "byteStride": 0,
      "componentType": 5126,
      "count": 2132,
      "max": [
        0.9997838139533997,
        1,
        0.9997838139533997
      ],
      "min": [
        -0.9997838735580444,
        -1,
        -0.9997836947441101
      ],
      "type": "VEC3"
    },
    "accessor_32": {
      "bufferView": "bufferView_0",
      "byteOffset": 51168,
      "byteStride": 0,
      "componentType": 5126,
      "count": 2132,
      "max": [
        0.9860472083091736,
        0.9947799444198608
      ],
      "min": [
        0.012877687811851501,
        0.01081317663192749
      ],
      "type": "VEC2"
    }
  },
  "animations": {},
  "asset": {
    "generator": "collada2gltf@bf2782288b99d9d4e819b92772b343810d29933d",
    "premultipliedAlpha": true,
    "profile": {
      "api": "WebGL",
      "version": "1.0.2"
    },
    "version": "1.0.1"
  },
  "bufferViews": {
    "bufferView_0": {
      "buffer": "buffer_0",
      "byteLength": 68224,
      "byteOffset": 0,
      "target": 34962
    },
    "bufferView_1": {
      "buffer": "buffer_0",
      "byteLength": 22920,
      "byteOffset": 68224,
      "target": 34963
    }
  },
  "buffers": {
    "buffer_0": {
      "type": "arraybuffer",
      "byteLength": 91144,
      "uri": "data:application/octet-stream;base64,"
    }
  },
  "images": {
    "m0IceCreamOnCone_Math-diffuse-image": {
      "name": "m0IceCreamOnCone_Math-diffuse-image",
      "uri": "data:image/jpeg;base64,"
    },
    "m0IceCreamOnCone_Math-specular-image": {
      "name": "m0IceCreamOnCone_Math-specular-image",
      "uri": "data:image/jpeg;base64,"
    }
  },
  "materials": {
    "m0IceCreamOnCone_Math-fx": {
      "name": "m0IceCreamOnCone_Math",
      "technique": "technique0",
      "values": {
        "ambient": [
          0,
          0,
          0,
          1
        ],
        "diffuse": "texture_m0IceCreamOnCone_Math-diffuse-image",
        "emission": [
          0,
          0,
          0,
          1
        ],
        "shininess": 20,
        "specular": "texture_m0IceCreamOnCone_Math-specular-image",
        "transparency": 1.0
      }
    }
  },
  "meshes": {
    "meshId0": {
      "name": "meshId0_name",
      "primitives": [
        {
          "attributes": {
            "NORMAL": "accessor_30",
            "POSITION": "accessor_28",
            "TEXCOORD_0": "accessor_32"
          },
          "indices": "accessor_26",
          "material": "m0IceCreamOnCone_Math-fx",
          "mode": 4
        }
      ]
    }
  },
  "nodes": {
    "rootNode": {
      "children": [],
      "meshes": [
        "meshId0"
      ],
      "matrix": [
        1,
        0,
        0,
        0,
        0,
        1,
        0,
        0,
        0,
        0,
        1,
        0,
        0,
        0,
        0,
        1
      ]
    }
  },
  "programs": {
    "program_0": {
      "attributes": [
        "a_normal",
        "a_position",
        "a_texcoord0"
      ],
      "fragmentShader": "IceCreamCone0FS",
      "vertexShader": "IceCreamCone0VS"
    }
  },
  "samplers": {
    "sampler_0": {
      "magFilter": 9729,
      "minFilter": 9729,
      "wrapS": 10497,
      "wrapT": 10497
    }
  },
  "scene": "defaultScene",
  "scenes": {
    "defaultScene": {
      "nodes": [
        "rootNode"
      ]
    }
  },
  "shaders": {
    "IceCreamCone0FS": {
      "type": 35632,
      "uri": "data:text/plain;base64,"
    },
    "IceCreamCone0VS": {
      "type": 35633,
      "uri": "data:text/plain;base64,"
    }
  },
  "skins": {},
  "techniques": {
    "technique0": {
      "attributes": {
        "a_normal": "normal",
        "a_position": "position",
        "a_texcoord0": "texcoord0"
      },
      "parameters": {
        "ambient": {
          "type": 35666
        },
        "diffuse": {
          "type": 35678
        },
        "emission": {
          "type": 35666
        },
        "modelViewMatrix": {
          "semantic": "MODELVIEW",
          "type": 35676
        },
        "normal": {
          "semantic": "NORMAL",
          "type": 35665
        },
        "normalMatrix": {
          "semantic": "MODELVIEWINVERSETRANSPOSE",
          "type": 35675
        },
        "position": {
          "semantic": "POSITION",
          "type": 35665
        },
        "projectionMatrix": {
          "semantic": "PROJECTION",
          "type": 35676
        },
        "shininess": {
          "type": 5126
        },
        "specular": {
          "type": 35678
        },
        "texcoord0": {
          "semantic": "TEXCOORD_0",
          "type": 35664
        },
        "transparency": {
          "type": 5126
        }
      },
      "program": "program_0",
      "states": {
        "enable": [
          2929,
          3042
        ],
        "functions": {
          "blendEquationSeparate": [
            32774,
            32774
          ],
          "blendFuncSeparate": [
            1,
            771,
            1,
            771
          ],
          "depthMask": [
            false
          ]
        },
        "disable": []
      },
      "uniforms": {
        "u_ambient": "ambient",
        "u_diffuse": "diffuse",
        "u_emission": "emission",
        "u_modelViewMatrix": "modelViewMatrix",
        "u_normalMatrix": "normalMatrix",
        "u_projectionMatrix": "projectionMatrix",
        "u_shininess": "shininess",
        "u_specular": "specular",
        "u_transparency": "transparency"
      }
    }
  },
  "textures": {
    "texture_m0IceCreamOnCone_Math-diffuse-image": {
      "format": 6408,
      "internalFormat": 6408,
      "sampler": "sampler_0",
      "source": "m0IceCreamOnCone_Math-diffuse-image",
      "target": 3553,
      "type": 5121
    },
    "texture_m0IceCreamOnCone_Math-specular-image": {
      "format": 6408,
      "internalFormat": 6408,
      "sampler": "sampler_0",
      "source": "m0IceCreamOnCone_Math-specular-image",
      "target": 3553,
      "type": 5121
    }
  },
  "extensionsUsed": [],
  "cameras": {}
}
